# Blender v2.80 (sub 42) OBJ File: 'log1.blend'
# www.blender.org
mtllib log2.mtl
o Cylinder_Cylinder.001
v -7.962390 0.008400 -1.009663
v 7.429079 0.035450 -0.987759
v -7.940339 -0.496436 -0.860032
v 7.706301 -0.460021 -0.863470
v -7.945345 -0.864267 -0.498581
v 7.565392 -0.828680 -0.504247
v -7.939434 -0.991021 0.000039
v 7.448316 -0.999006 -0.019549
v -7.918702 -0.837611 0.482374
v 7.542783 -0.884567 0.484514
v -7.923505 -0.486570 0.842745
v 7.962746 -0.518490 0.855782
v -7.959117 -0.000003 1.014455
v 7.958970 -0.034315 0.972940
v -7.923804 0.486835 0.843071
v 7.974763 0.467589 0.880904
v -7.925992 0.845281 0.488447
v 7.922737 0.806171 0.504827
v -7.832685 0.984648 0.000206
v 7.985134 1.038791 0.035543
v -7.937505 0.860352 -0.493250
v 7.935594 0.886845 -0.470204
v -7.951265 0.416644 -0.881302
v 7.642905 0.530048 -0.833086
v -6.176209 0.008153 -0.882635
v -4.420944 0.025483 -0.795342
v -2.656595 0.045460 -0.822313
v -0.892640 0.032016 -0.811887
v 0.870904 0.022167 -0.816327
v 2.632033 0.030061 -0.841676
v 4.385340 0.033044 -0.847396
v 6.048106 0.036884 -0.898054
v 6.141661 -0.448076 -0.791401
v 4.394423 -0.445408 -0.748386
v 2.633208 -0.458372 -0.746785
v 0.871861 -0.433866 -0.696346
v -0.892048 -0.423902 -0.681270
v -2.656595 -0.420242 -0.686342
v -4.420448 -0.411189 -0.690616
v -6.179575 -0.464323 -0.795450
v 6.090511 -0.808422 -0.447712
v 4.396561 -0.796002 -0.406537
v 2.639408 -0.772158 -0.369968
v 0.875327 -0.805242 -0.388826
v -0.890034 -0.752245 -0.342837
v -2.655912 -0.753441 -0.342773
v -4.419622 -0.760915 -0.381734
v -6.183400 -0.802325 -0.445058
v 6.170052 -0.939518 0.020167
v 4.414234 -0.908696 0.055190
v 2.647770 -0.902906 0.075827
v 0.881029 -0.920416 0.090159
v -0.887475 -0.890571 0.114728
v -2.654955 -0.904387 0.123462
v -4.419416 -0.889440 0.081501
v -6.186210 -0.914026 0.024947
v 6.107645 -0.805981 0.485785
v 4.419392 -0.809785 0.525618
v 2.656948 -0.790354 0.533499
v 0.886907 -0.814435 0.569791
v -0.884608 -0.772284 0.576069
v -2.654040 -0.763456 0.587400
v -4.418602 -0.754460 0.531910
v -6.180203 -0.763567 0.471719
v 6.203761 -0.475692 0.825903
v 4.435784 -0.464684 0.864256
v 2.663898 -0.456172 0.875111
v 0.891460 -0.461481 0.908312
v -0.882337 -0.441759 0.927892
v -2.653188 -0.413765 0.900178
v -4.418643 -0.452815 0.900164
v -6.177079 -0.468765 0.848395
v 6.212033 -0.027831 0.992506
v 4.440203 -0.014662 1.048162
v 2.667758 -0.006830 1.070746
v 0.893702 0.003198 1.044428
v -0.881287 0.029683 1.038101
v -2.652832 0.041467 1.026620
v -4.419172 0.027327 1.013952
v -6.183993 0.009255 0.960720
v 6.209047 0.455679 0.895006
v 4.438431 0.463153 0.922760
v 2.666471 0.482572 0.957900
v 0.892499 0.454804 0.883504
v -0.881714 0.494376 0.926641
v -2.652974 0.504070 0.915180
v -4.418567 0.502614 0.891049
v -6.176778 0.482287 0.849760
v 6.189836 0.796212 0.541492
v 4.429672 0.810424 0.580921
v 2.660555 0.822577 0.593359
v 0.888687 0.795244 0.562015
v -0.883406 0.856008 0.603366
v -2.653490 0.836740 0.578971
v -4.418135 0.822480 0.530719
v -6.176938 0.827389 0.498167
v 6.189994 0.950719 0.079791
v 4.419015 0.938843 0.114393
v 2.651543 0.933256 0.118690
v 0.883525 0.969184 0.116584
v -0.886559 0.955737 0.129794
v -2.654678 1.001847 0.123577
v -4.417154 0.955867 0.078063
v -6.159203 0.949534 0.019800
v 6.169219 0.811929 -0.384287
v 4.406152 0.862731 -0.378690
v 2.642340 0.806670 -0.341918
v 0.877496 0.819493 -0.338816
v -0.889347 0.841072 -0.332609
v -2.655741 0.836579 -0.330379
v -4.419791 0.846391 -0.387184
v -6.179177 0.827187 -0.446848
v 6.096118 0.503115 -0.749661
v 4.392803 0.502430 -0.724028
v 2.635350 0.483490 -0.684760
v 0.873114 0.460112 -0.639367
v -0.891493 0.503228 -0.683442
v -2.656476 0.509990 -0.675209
v -4.414788 0.487218 -0.716341
v -6.116367 0.451985 -0.739913
v -7.947147 -0.368444 -0.637230
v -7.931958 0.000525 0.267542
vt 1.000000 0.944444
vt 1.000000 0.984414
vt 0.916667 0.993989
vt 0.916667 0.944444
vt 0.833333 0.988970
vt 0.833333 0.944444
vt 0.750000 0.983995
vt 0.750000 0.944444
vt 0.666667 0.986527
vt 0.666667 0.944445
vt 0.583333 1.000000
vt 0.583333 0.944444
vt 0.500000 1.000000
vt 0.500000 0.944445
vt 0.416667 1.000000
vt 0.416667 0.944444
vt 0.333333 1.000000
vt 0.333333 0.944444
vt 0.250000 1.000000
vt 0.250000 0.944444
vt 0.166667 1.000000
vt 0.166667 0.944444
vt 0.370000 0.042154
vt 0.130000 0.042154
vt 0.250000 0.010000
vt 0.083333 0.991353
vt 0.083333 0.944444
vt 0.000000 0.984414
vt 0.000000 0.944444
vt 0.837137 0.402344
vt 0.957846 0.370000
vt 0.990000 0.250000
vt 0.083333 0.510157
vt 0.083333 0.555556
vt 0.000000 0.555556
vt 0.000000 0.500000
vt 0.083333 0.611111
vt 0.000000 0.611111
vt 0.083333 0.666667
vt 0.000000 0.666667
vt 0.083333 0.722222
vt 0.000000 0.722222
vt 0.083333 0.777778
vt 0.000000 0.777778
vt 0.083333 0.833333
vt 0.000000 0.833333
vt 0.083333 0.888889
vt 0.000000 0.888889
vt 0.166667 0.500000
vt 0.166667 0.555556
vt 0.166667 0.611111
vt 0.166667 0.666667
vt 0.166667 0.722222
vt 0.166667 0.777778
vt 0.166667 0.833333
vt 0.166667 0.888889
vt 0.250000 0.503204
vt 0.250000 0.555556
vt 0.250000 0.611111
vt 0.250000 0.666667
vt 0.250000 0.722222
vt 0.250000 0.777778
vt 0.250000 0.833333
vt 0.250000 0.888889
vt 0.333333 0.500000
vt 0.333333 0.555556
vt 0.333333 0.611111
vt 0.333333 0.666667
vt 0.333333 0.722222
vt 0.333333 0.777778
vt 0.333333 0.833333
vt 0.333333 0.888889
vt 0.416667 0.500000
vt 0.416667 0.555556
vt 0.416667 0.611111
vt 0.416667 0.666667
vt 0.416667 0.722222
vt 0.416667 0.777778
vt 0.416667 0.833333
vt 0.416667 0.888889
vt 0.500000 0.500000
vt 0.500000 0.555555
vt 0.500000 0.611111
vt 0.500000 0.666667
vt 0.500000 0.722222
vt 0.500000 0.777778
vt 0.500000 0.833333
vt 0.500000 0.888889
vt 0.583333 0.500000
vt 0.583333 0.555556
vt 0.583333 0.611111
vt 0.583333 0.666667
vt 0.583333 0.722222
vt 0.583333 0.777778
vt 0.583333 0.833333
vt 0.583333 0.888889
vt 0.666667 0.500000
vt 0.666667 0.555556
vt 0.666667 0.611111
vt 0.666667 0.666667
vt 0.666667 0.722222
vt 0.666667 0.777778
vt 0.666667 0.833333
vt 0.666667 0.888889
vt 0.750000 0.500000
vt 0.750000 0.555556
vt 0.750000 0.611111
vt 0.750000 0.666667
vt 0.750000 0.722222
vt 0.750000 0.777778
vt 0.750000 0.833333
vt 0.750000 0.888889
vt 0.833333 0.500000
vt 0.833333 0.555556
vt 0.833333 0.611111
vt 0.833333 0.666667
vt 0.833333 0.722222
vt 0.833333 0.777778
vt 0.833333 0.833333
vt 0.833333 0.888889
vt 0.916667 0.500000
vt 0.916667 0.555556
vt 0.916667 0.611111
vt 0.916667 0.666667
vt 0.916667 0.722222
vt 0.916667 0.777778
vt 0.916667 0.833333
vt 0.916667 0.888889
vt 1.000000 0.500000
vt 1.000000 0.555556
vt 1.000000 0.611111
vt 1.000000 0.666667
vt 1.000000 0.722222
vt 1.000000 0.777778
vt 1.000000 0.833333
vt 1.000000 0.888889
vt 0.363477 0.442673
vt 0.230909 0.456455
vt 0.130330 0.457850
vt 0.455758 0.381487
vt 0.042154 0.370000
vt 0.010000 0.250000
vt 0.042154 0.130000
vt 0.453475 0.128633
vt 0.486739 0.251896
vt 0.750000 0.490000
vt 0.870000 0.457846
vt 0.870000 0.042154
vt 0.750000 0.010000
vt 0.630000 0.042154
vt 0.630797 0.459527
vt 0.542154 0.370000
vt 0.509481 0.249181
vt 0.745490 0.184484
vt 0.542154 0.130000
vt 0.957846 0.130000
vn -0.0542 -0.2483 -0.9672
vn -0.0379 -0.6884 -0.7243
vn -0.0382 -0.9523 -0.3028
vn -0.0455 -0.9675 0.2489
vn -0.0331 -0.7021 0.7113
vn -0.0069 -0.2912 0.9566
vn 0.0091 0.1888 0.9820
vn 0.0053 0.7322 0.6810
vn -0.0169 0.9236 0.3829
vn -0.0542 0.9576 -0.2831
vn 0.9957 -0.0145 0.0919
vn -0.0567 0.7510 -0.6579
vn -0.0588 0.3148 -0.9473
vn -0.9999 -0.0003 0.0118
vn 0.0677 0.2973 -0.9524
vn 0.0276 0.2358 -0.9714
vn 0.0010 0.2371 -0.9715
vn 0.0022 0.2825 -0.9593
vn 0.0154 0.3183 -0.9478
vn -0.0219 0.3508 -0.9362
vn -0.0141 0.2907 -0.9567
vn -0.0221 0.2801 -0.9597
vn 0.0397 0.6404 -0.7670
vn 0.0082 0.6469 -0.7626
vn 0.0172 0.7009 -0.7130
vn -0.0016 0.7232 -0.6907
vn 0.0203 0.6824 -0.7307
vn -0.0121 0.6860 -0.7275
vn -0.0303 0.7096 -0.7039
vn 0.0043 0.7278 -0.6858
vn 0.0241 0.9675 -0.2517
vn 0.0011 0.9704 -0.2414
vn -0.0015 0.9581 -0.2864
vn 0.0116 0.9563 -0.2922
vn 0.0007 0.9609 -0.2768
vn 0.0131 0.9573 -0.2889
vn -0.0195 0.9781 -0.2074
vn 0.0083 0.9756 -0.2193
vn 0.0127 0.9648 0.2625
vn -0.0073 0.9643 0.2645
vn -0.0245 0.9497 0.3122
vn 0.0049 0.9617 0.2741
vn 0.0172 0.9583 0.2852
vn -0.0005 0.9553 0.2955
vn 0.0030 0.9692 0.2462
vn 0.0067 0.9566 0.2915
vn 0.0012 0.7084 0.7058
vn -0.0175 0.7307 0.6825
vn -0.0173 0.7297 0.6836
vn -0.0092 0.6886 0.7250
vn 0.0367 0.6761 0.7359
vn -0.0320 0.7094 0.7041
vn 0.0158 0.7168 0.6971
vn 0.0177 0.7112 0.7028
vn 0.0124 0.2817 0.9594
vn -0.0286 0.2396 0.9705
vn -0.0112 0.2424 0.9701
vn -0.0049 0.2337 0.9723
vn 0.0152 0.2849 0.9584
vn -0.0286 0.2792 0.9598
vn 0.0176 0.2392 0.9708
vn 0.0242 0.2259 0.9738
vn 0.0153 -0.2818 0.9593
vn -0.0268 -0.2298 0.9729
vn 0.0003 -0.2488 0.9686
vn -0.0135 -0.2474 0.9688
vn 0.0003 -0.2545 0.9671
vn 0.0014 -0.3412 0.9400
vn 0.0069 -0.3889 0.9213
vn 0.0222 -0.3638 0.9312
vn 0.0208 -0.7519 0.6589
vn -0.0143 -0.7805 0.6250
vn -0.0047 -0.7227 0.6912
vn -0.0106 -0.6988 0.7153
vn -0.0073 -0.7106 0.7036
vn 0.0198 -0.7035 0.7104
vn -0.0018 -0.7076 0.7066
vn 0.0144 -0.7100 0.7041
vn 0.0398 -0.9500 0.3096
vn -0.0009 -0.9529 0.3032
vn -0.0145 -0.9573 0.2889
vn 0.0029 -0.9629 0.2698
vn -0.0178 -0.9726 0.2320
vn 0.0147 -0.9738 0.2268
vn -0.0052 -0.9750 0.2222
vn -0.0024 -0.9706 0.2409
vn 0.0437 -0.9701 -0.2389
vn 0.0266 -0.9681 -0.2491
vn 0.0046 -0.9576 -0.2879
vn 0.0033 -0.9543 -0.2988
vn -0.0278 -0.9650 -0.2609
vn 0.0142 -0.9663 -0.2572
vn -0.0123 -0.9659 -0.2587
vn -0.0177 -0.9676 -0.2519
vn 0.0425 -0.7097 -0.7032
vn 0.0530 -0.6912 -0.7208
vn 0.0086 -0.6908 -0.7230
vn 0.0005 -0.7178 -0.6963
vn -0.0248 -0.6782 -0.7345
vn -0.0046 -0.7067 -0.7075
vn -0.0096 -0.7343 -0.6787
vn -0.0207 -0.6932 -0.7204
vn 0.0545 -0.2342 -0.9707
vn 0.0575 -0.2064 -0.9768
vn -0.0054 -0.2577 -0.9662
vn 0.0029 -0.2779 -0.9606
vn -0.0068 -0.2650 -0.9642
vn -0.0220 -0.2218 -0.9748
vn -0.0011 -0.1966 -0.9805
vn -0.0268 -0.2114 -0.9770
vn 0.4932 0.0582 -0.8680
vn 0.9130 0.0460 0.4054
vn 0.9771 -0.2102 -0.0326
vn 0.9754 -0.2194 0.0209
vn 0.9895 -0.0084 -0.1444
vn 0.8424 -0.1717 -0.5107
vn 0.9564 -0.2558 0.1411
vn 0.9604 -0.2497 -0.1233
vn 0.7268 -0.1553 -0.6690
vn -0.9942 -0.0680 -0.0830
vn -0.9793 -0.0002 -0.2024
vn -0.9986 0.0109 0.0519
vn -0.9999 -0.0021 0.0100
vn -0.9996 0.0080 0.0263
vn -0.9835 0.0522 -0.1731
vn -0.9999 0.0043 0.0121
vn -0.9990 -0.0044 0.0444
vn -0.9747 0.1447 0.1706
vn -0.9999 0.0043 0.0105
vn -0.9999 -0.0003 0.0144
vn -0.9999 -0.0154 0.0017
usemtl None
s off
f 32/1/1 2/2/1 4/3/1 33/4/1
f 33/4/2 4/3/2 6/5/2 41/6/2
f 41/6/3 6/5/3 8/7/3 49/8/3
f 49/8/4 8/7/4 10/9/4 57/10/4
f 57/10/5 10/9/5 12/11/5 65/12/5
f 65/12/6 12/11/6 14/13/6 73/14/6
f 73/14/7 14/13/7 16/15/7 81/16/7
f 81/16/8 16/15/8 18/17/8 89/18/8
f 89/18/9 18/17/9 20/19/9 97/20/9
f 97/20/10 20/19/10 22/21/10 105/22/10
f 12/23/11 16/24/11 14/25/11
f 105/22/12 22/21/12 24/26/12 113/27/12
f 113/27/13 24/26/13 2/28/13 32/29/13
f 121/30/14 5/31/14 7/32/14
f 23/33/15 120/34/15 25/35/15 1/36/15
f 120/34/16 119/37/16 26/38/16 25/35/16
f 119/37/17 118/39/17 27/40/17 26/38/17
f 118/39/18 117/41/18 28/42/18 27/40/18
f 117/41/19 116/43/19 29/44/19 28/42/19
f 116/43/20 115/45/20 30/46/20 29/44/20
f 115/45/21 114/47/21 31/48/21 30/46/21
f 114/47/22 113/27/22 32/29/22 31/48/22
f 21/49/23 112/50/23 120/34/23 23/33/23
f 112/50/24 111/51/24 119/37/24 120/34/24
f 111/51/25 110/52/25 118/39/25 119/37/25
f 110/52/26 109/53/26 117/41/26 118/39/26
f 109/53/27 108/54/27 116/43/27 117/41/27
f 108/54/28 107/55/28 115/45/28 116/43/28
f 107/55/29 106/56/29 114/47/29 115/45/29
f 106/56/30 105/22/30 113/27/30 114/47/30
f 19/57/31 104/58/31 112/50/31 21/49/31
f 104/58/32 103/59/32 111/51/32 112/50/32
f 103/59/33 102/60/33 110/52/33 111/51/33
f 102/60/34 101/61/34 109/53/34 110/52/34
f 101/61/35 100/62/35 108/54/35 109/53/35
f 100/62/36 99/63/36 107/55/36 108/54/36
f 99/63/37 98/64/37 106/56/37 107/55/37
f 98/64/38 97/20/38 105/22/38 106/56/38
f 17/65/39 96/66/39 104/58/39 19/57/39
f 96/66/40 95/67/40 103/59/40 104/58/40
f 95/67/41 94/68/41 102/60/41 103/59/41
f 94/68/42 93/69/42 101/61/42 102/60/42
f 93/69/43 92/70/43 100/62/43 101/61/43
f 92/70/44 91/71/44 99/63/44 100/62/44
f 91/71/45 90/72/45 98/64/45 99/63/45
f 90/72/46 89/18/46 97/20/46 98/64/46
f 15/73/47 88/74/47 96/66/47 17/65/47
f 88/74/48 87/75/48 95/67/48 96/66/48
f 87/75/49 86/76/49 94/68/49 95/67/49
f 86/76/50 85/77/50 93/69/50 94/68/50
f 85/77/51 84/78/51 92/70/51 93/69/51
f 84/78/52 83/79/52 91/71/52 92/70/52
f 83/79/53 82/80/53 90/72/53 91/71/53
f 82/80/54 81/16/54 89/18/54 90/72/54
f 13/81/55 80/82/55 88/74/55 15/73/55
f 80/82/56 79/83/56 87/75/56 88/74/56
f 79/83/57 78/84/57 86/76/57 87/75/57
f 78/84/58 77/85/58 85/77/58 86/76/58
f 77/85/59 76/86/59 84/78/59 85/77/59
f 76/86/60 75/87/60 83/79/60 84/78/60
f 75/87/61 74/88/61 82/80/61 83/79/61
f 74/88/62 73/14/62 81/16/62 82/80/62
f 11/89/63 72/90/63 80/82/63 13/81/63
f 72/90/64 71/91/64 79/83/64 80/82/64
f 71/91/65 70/92/65 78/84/65 79/83/65
f 70/92/66 69/93/66 77/85/66 78/84/66
f 69/93/67 68/94/67 76/86/67 77/85/67
f 68/94/68 67/95/68 75/87/68 76/86/68
f 67/95/69 66/96/69 74/88/69 75/87/69
f 66/96/70 65/12/70 73/14/70 74/88/70
f 9/97/71 64/98/71 72/90/71 11/89/71
f 64/98/72 63/99/72 71/91/72 72/90/72
f 63/99/73 62/100/73 70/92/73 71/91/73
f 62/100/74 61/101/74 69/93/74 70/92/74
f 61/101/75 60/102/75 68/94/75 69/93/75
f 60/102/76 59/103/76 67/95/76 68/94/76
f 59/103/77 58/104/77 66/96/77 67/95/77
f 58/104/78 57/10/78 65/12/78 66/96/78
f 7/105/79 56/106/79 64/98/79 9/97/79
f 56/106/80 55/107/80 63/99/80 64/98/80
f 55/107/81 54/108/81 62/100/81 63/99/81
f 54/108/82 53/109/82 61/101/82 62/100/82
f 53/109/83 52/110/83 60/102/83 61/101/83
f 52/110/84 51/111/84 59/103/84 60/102/84
f 51/111/85 50/112/85 58/104/85 59/103/85
f 50/112/86 49/8/86 57/10/86 58/104/86
f 5/113/87 48/114/87 56/106/87 7/105/87
f 48/114/88 47/115/88 55/107/88 56/106/88
f 47/115/89 46/116/89 54/108/89 55/107/89
f 46/116/90 45/117/90 53/109/90 54/108/90
f 45/117/91 44/118/91 52/110/91 53/109/91
f 44/118/92 43/119/92 51/111/92 52/110/92
f 43/119/93 42/120/93 50/112/93 51/111/93
f 42/120/94 41/6/94 49/8/94 50/112/94
f 3/121/95 40/122/95 48/114/95 5/113/95
f 40/122/96 39/123/96 47/115/96 48/114/96
f 39/123/97 38/124/97 46/116/97 47/115/97
f 38/124/98 37/125/98 45/117/98 46/116/98
f 37/125/99 36/126/99 44/118/99 45/117/99
f 36/126/100 35/127/100 43/119/100 44/118/100
f 35/127/101 34/128/101 42/120/101 43/119/101
f 34/128/102 33/4/102 41/6/102 42/120/102
f 1/129/103 25/130/103 40/122/103 3/121/103
f 25/130/104 26/131/104 39/123/104 40/122/104
f 26/131/105 27/132/105 38/124/105 39/123/105
f 27/132/106 28/133/106 37/125/106 38/124/106
f 28/133/107 29/134/107 36/126/107 37/125/107
f 29/134/108 30/135/108 35/127/108 36/126/108
f 30/135/109 31/136/109 34/128/109 35/127/109
f 31/136/110 32/1/110 33/4/110 34/128/110
f 4/137/111 2/138/111 24/139/111
f 6/140/112 4/137/112 24/139/112
f 6/140/113 22/141/113 20/142/113
f 20/142/114 18/143/114 10/144/114
f 18/143/115 16/24/115 12/23/115
f 22/141/116 6/140/116 24/139/116
f 8/145/117 6/140/117 20/142/117
f 8/145/118 20/142/118 10/144/118
f 10/144/119 18/143/119 12/23/119
f 1/146/120 3/147/120 5/31/120
f 11/148/121 13/149/121 15/150/121
f 23/151/122 1/146/122 121/30/122
f 121/30/122 1/146/122 5/31/122
f 23/151/123 121/30/123 7/32/123
f 21/152/124 23/151/124 7/32/124
f 19/153/125 122/154/125 17/155/125
f 21/152/126 7/32/126 122/154/126
f 7/32/127 9/156/127 122/154/127
f 19/153/128 21/152/128 122/154/128
f 122/154/129 15/150/129 17/155/129
f 11/148/130 15/150/130 122/154/130
f 9/156/131 11/148/131 122/154/131
